<?xml version="1.0" ?><svg viewBox="0 0 64 64" xmlns="http://www.w3.org/2000/svg"><path d="M56.13 31.794c-.348 0-1.99 4.816-1.99 4.816s-2.34-.903-3.137-.602c-.796.3-2.34 2.007-1.593 3.41.747 1.406 3.883 1.305 4.63 1.105.747-.2 1.892-4.264 2.04-4.314.15-.05 3.834 1.454 4.183 1.705.35.25-.3 1.806-.3 1.806s-1.74.202-2.488.804c-.747.602-1.195 1.505-.448 2.558.747 1.053 2.638.702 3.734-.3 1.096-1.004 2.19-7.576 2.24-8.027.05-.452-6.522-2.96-6.87-2.96zm4.38 4.917c-.198-.15-3.882-1.905-3.882-1.905l.3-.803c.248 0 4.38 1.304 4.38 1.455 0 .15-.598 1.404-.797 1.254zM40.7 12.733c1.493.752 3.734-.2 4.38-.903.648-.703 1.246-5.42 1.295-5.62.05-.2 3.136.302 3.335.302.2 0 1.045-4.013 1.045-4.314 0-.3-4.38-1.355-4.928-1.304-.548.05-1.162 8.66-1.444 8.377-1.044-1.052-3.932-1.052-4.778.152-.846 1.203-.398 2.557 1.096 3.31zm5.177 4.665c-2.838-1.705-35.383-.583-37.436.45-1.395.704-.897 3.513-.2 9.583.697 6.07 3.335 31.002 3.783 33.96.448 2.96 3.883 2.51 9.06 2.46 5.177-.05 21.556.55 22.95-.352 1.393-.903 1.144-8.026 1.592-12.64.45-4.616 3.087-31.755.25-33.46zm-2.64 32.808l-1.84-1.455s-.648.752-.5.953c.15.2 2.29 2.558 2.29 2.71 0 .15.15 1.755-.05 1.705-.198-.05-2.438-2.207-2.687-2.207s-.796.703-.647 1.155c.15.45 3.237 2.86 3.237 3.01 0 .15-.3 2.408-.3 2.408s-2.986-3.11-3.334-3.11-1.344.25-.796 1.053c.548.803 3.684 3.31 3.286 3.813-.398.5-.946.6-1.195.45-.25-.15-2.838-3.562-3.186-3.512-.348.05-.846.803-.747 1.003s2.838 2.61 2.14 2.81c-.696.2-6.52.45-12.494.502-5.973.05-10.85-.2-11.5-1.555-.646-1.354-1.692-12.34-2.588-21.07-.896-8.728-2.14-18.008-1.693-19.01.274-.616 11.847-.904 18.717-.854 6.87.05 14.686-.602 15.383 2.96.697 3.56-1.494 28.242-1.494 28.242zM2.316.04c-1.044.752 2.19 7.525 2.19 7.525l-1.244.3c-1.244.302-2.588 1.857-2.19 3.16.4 1.305 1.992 1.957 3.535 1.406s2.59-1.303 2.688-2.608C7.393 8.518 4.855 2.9 4.855 2.9s2.14.35 2.44.2c.298-.15.347-.953.1-1.705S2.64-.195 2.314.04zm22.502 32.858c4.43 2.71 11.75-.15 11.3-5.72s-5.353-8.366-10.155-6.22c-5.725 2.56-5.575 9.23-1.145 11.94zm2.39-10.535c1.666-.764 7.218.2 7.368 5.418.15 5.218-7.567 5.017-9.558 3.212s-3.386-6.07 2.19-8.63zm-11.002.25c.3-.15.05-.7-.398-.952-.448-.25-2.663-.326-3.186.202-.248.25.45 6.572.748 7.224.3.652 1.145.15 1.543.05.4-.1-.646-6.02-.547-6.17.1-.15 1.543-.2 1.842-.352zm24.89 5.068s-.995 8.93-.795 9.633c.2.702 1.095.552 1.493.552.398 0 1.045-9.782.946-10.083-.1-.302-1.495-.15-1.644-.1zm-13.19 7.877c-5.626.25-8.115 1.956-10.505 6.07-2.39 4.113-1.444 8.528 1.294 12.44 2.738 3.914 9.907 4.516 14.038 2.56 4.132-1.957 5.775-4.867 5.576-11.64-.2-6.77-6.708-9.595-10.404-9.43zm-.897 20.367c-5.824-.853-9.608-3.863-9.757-8.98-.148-5.116 3.685-10.483 10.604-9.63 3.46.425 8.463 1.052 9.21 7.624s-4.232 11.838-10.056 10.986zm.718-17.647c-4.243.19-6.12 1.476-7.924 4.58-1.802 3.102-1.09 6.432.976 9.383 2.065 2.95 7.473 3.406 10.59 1.93 3.117-1.476 4.356-3.67 4.206-8.78-.15-5.107-5.06-7.237-7.848-7.113zm-.607 11.87c-2.208-.323-3.642-1.464-3.698-3.403-.057-1.94 1.396-3.973 4.018-3.65 1.31.162 3.207.4 3.49 2.89s-1.604 4.486-3.81 4.163zm-1.158-23.77c.15-.853.747-1.304 1.195-1.756.448-.45-.423-.91-.647-.802-2.29 1.104-2.34 2.96-2.19 3.46.15.503.946.603 1.294.603.348.002.2-.65.348-1.503zm.896 2.76c.896 1.404 3.983 1.404 4.928-.402.946-1.806.106-3.797-1.942-3.913-3.533-.2-3.882 2.91-2.986 4.314zm2.788-2.76c1.095.033 1.444 1.104 1.045 1.655-.397.552-1.99.903-2.388.3-.398-.6-.35-2.005 1.344-1.955zm-2.31 18.162c-1.547-.192-2.405 1.01-2.372 2.154.033 1.145.88 1.818 2.183 2.01 1.303.19 2.417-.99 2.25-2.46-.166-1.47-1.286-1.61-2.06-1.705z"/></svg>